<?xml version="1.0" encoding="iso-8859-1" standalone="no"?>
<svg version="1.1" id="yadawia-logo" class="logo" xmlns="http://www.w3.org/2000/svg" xmlns:xlink="http://www.w3.org/1999/xlink" x="0px" y="0px"
	 viewBox="0 0 385.048 385.048" style="enable-background:new 0 0 385.048 385.048;" xml:space="preserve">
<g>
	<polygon style="fill:#FFC9D8;" points="262.191,116.558 215.326,131.354 248.333,138.956 	"/>
	<polygon style="fill:#FFC9D8;" points="168.22,243.23 192.525,254.41 216.829,243.23 243.655,150.193 192.524,138.418 
		141.394,150.192 	"/>
	<polygon style="fill:#FFC9D8;" points="136.715,138.956 169.724,131.354 122.857,116.558 	"/>
	<polygon style="fill:#FF91B9;" points="65.684,167.628 97.572,210.733 153.822,236.607 129.683,152.889 	"/>
	<polygon style="fill:#FF91B9;" points="161.468,116.164 88.029,60.271 113.181,100.921 	"/>
	<polygon style="fill:#FF91B9;" points="297.017,60.271 223.579,116.165 271.867,100.921 	"/>
	<polygon style="fill:#FFC9D8;" points="319.09,108.513 314.679,54.536 285.446,101.783 	"/>
	<polygon style="fill:#FF91B9;" points="359.174,144.164 328.141,71.94 331.534,113.45 	"/>
	<polygon style="fill:#EEEEEE;" points="260.685,141.8 322.984,156.147 320.107,120.955 278.708,112.672 	"/>
	<polygon style="fill:#FF91B9;" points="231.227,236.607 287.476,210.733 319.363,167.628 255.366,152.889 	"/>
	<polygon style="fill:#FFC9D8;" points="310.102,200.326 360.561,177.115 332.118,170.565 	"/>
	<path style="fill:#FF91B9;" d="M194.884,266.524c-0.203,0.087-1.016,0.491-2.355,0.491s-2.501-0.545-2.512-0.55l-17.406-8.007
		l19.914,69.064l19.913-69.064C212.438,258.459,194.921,266.507,194.884,266.524z"/>
	<polygon style="fill:#FFC9D8;" points="112.383,230.756 177.524,318.814 158.212,251.836 	"/>
	<polygon style="fill:#FFC9D8;" points="70.369,54.536 65.958,108.513 99.603,101.782 	"/>
	<polygon style="fill:#FF91B9;" points="236.169,300.27 347.719,196.23 295.293,220.346 	"/>
	<polygon style="fill:#FF91B9;" points="335.254,158.973 361.876,165.104 333.146,133.181 	"/>
	<polygon style="fill:#FFC9D8;" points="226.836,251.836 207.525,318.815 272.667,230.754 	"/>
	<polygon style="fill:#FF91B9;" points="37.33,196.232 148.88,300.27 89.757,220.347 	"/>
	<polygon style="fill:#FF91B9;" points="56.908,71.937 25.873,144.165 53.514,113.451 	"/>
	<polygon style="fill:#EEEEEE;" points="106.341,112.672 64.941,120.955 62.064,156.148 124.364,141.8 	"/>
	<polygon style="fill:#FF91B9;" points="51.902,133.181 23.172,165.104 49.794,158.973 	"/>
	<polygon style="fill:#FFC9D8;" points="52.93,170.564 24.487,177.115 74.946,200.325 	"/>
	<path style="fill:#751C35;" d="M324.685,33.5c-0.729-1.697-2.199-2.964-3.986-3.434c-1.788-0.472-3.689-0.092-5.16,1.028
		L192.524,124.72L69.509,31.094c-1.471-1.119-3.375-1.497-5.16-1.028c-1.787,0.47-3.258,1.736-3.986,3.434L0.488,172.846
		c-1,2.327-0.432,5.03,1.42,6.757l186.524,173.965c1.151,1.074,2.62,1.612,4.092,1.612c0,0,0,0,0.001,0
		c1.472,0,2.941-0.538,4.092-1.612L383.14,179.603c1.852-1.727,2.42-4.43,1.42-6.757L324.685,33.5z M359.174,144.164l-27.641-30.714
		l-3.393-41.51L359.174,144.164z M320.107,120.955l2.877,35.192L260.685,141.8l18.022-29.129L320.107,120.955z M319.363,167.628
		l-31.887,43.105l-56.249,25.874l24.139-83.718L319.363,167.628z M319.09,108.513l-33.645-6.73l29.233-47.247L319.09,108.513z
		 M297.017,60.271l-25.15,40.649l-48.288,15.244L297.017,60.271z M262.191,116.558l-13.858,22.397l-33.007-7.602L262.191,116.558z
		 M243.655,150.193l-26.826,93.037l-24.304,11.18l-24.305-11.18l-26.826-93.038l51.13-11.774L243.655,150.193z M153.822,236.607
		l-56.25-25.874l-31.888-43.105l63.999-14.738L153.822,236.607z M136.715,138.956l-13.858-22.397l46.867,14.796L136.715,138.956z
		 M161.468,116.164l-48.287-15.243L88.029,60.271L161.468,116.164z M70.369,54.536l29.234,47.246l-33.646,6.731L70.369,54.536z
		 M64.941,120.955l41.4-8.283l18.022,29.129l-62.3,14.348L64.941,120.955z M56.908,71.937l-3.394,41.514l-27.642,30.714
		L56.908,71.937z M51.902,133.181l-2.108,25.792l-26.621,6.131L51.902,133.181z M52.93,170.564l22.016,29.761l-50.459-23.21
		L52.93,170.564z M37.33,196.232l52.428,24.115l59.123,79.923L37.33,196.232z M112.383,230.756l45.829,21.08l19.311,66.979
		L112.383,230.756z M192.525,327.523l-19.914-69.064l17.406,8.007c0.011,0.005,1.172,0.55,2.512,0.55s2.152-0.404,2.355-0.491
		c0.037-0.017,17.554-8.065,17.554-8.065L192.525,327.523z M226.836,251.836l45.83-21.082l-65.142,88.061L226.836,251.836z
		 M236.169,300.27l59.123-79.924l52.427-24.116L236.169,300.27z M310.102,200.326l22.016-29.761l28.443,6.55L310.102,200.326z
		 M335.254,158.973l-2.108-25.792l28.729,31.923L335.254,158.973z"/>
</g>
</svg>
